<?xml version="1.0" encoding="UTF-8"?>
<svg version="1.1" xmlns="http://www.w3.org/2000/svg" width="712" height="356">
<path d="M0 0 C1.05083775 0.89793725 2.09922842 1.79875048 3.14453125 2.703125 C3.96566406 3.40953125 4.78679687 4.1159375 5.6328125 4.84375 C21.00449409 19.15060817 33.8313844 41.93054902 35.1015625 63.04296875 C35.11574219 63.59082031 35.12992187 64.13867188 35.14453125 64.703125 C35.85996094 64.4865625 36.57539063 64.27 37.3125 64.046875 C51.25498193 60.15091627 64.00405723 60.7446831 77.15625 67.17578125 C89.30611926 74.34369575 97.92620364 85.49891692 101.51953125 99.203125 C103.31907213 109.49946715 103.09705215 121.77434365 97.14453125 130.703125 C91.94809046 129.10422014 87.07840983 126.96174497 82.14453125 124.703125 C82.47453125 123.671875 82.80453125 122.640625 83.14453125 121.578125 C85.21894071 113.11513568 85.64357922 103.56719401 81.4609375 95.7265625 C76.27248241 87.75142975 70.35832563 82.91838469 61.16015625 80.09375 C51.67243791 78.2550449 43.13918839 80.25134627 34.8515625 85.0234375 C29.89486413 88.42709904 26.93458779 92.41811405 24.14453125 97.703125 C20.29427246 97.09957092 17.28351966 95.93539897 13.83203125 94.140625 C12.50751953 93.45806641 12.50751953 93.45806641 11.15625 92.76171875 C10.16044922 92.23771484 10.16044922 92.23771484 9.14453125 91.703125 C9.78376258 86.07180141 12.90869738 82.95364556 16.4296875 78.71484375 C20.80181277 71.0362365 17.078611 60.10816888 14.88085938 52.05029297 C8.20928295 30.7835371 -7.6187348 13.41416147 -26.85546875 2.703125 C-47.20168409 -7.61538697 -72.11530156 -9.98125496 -94.0703125 -3.55078125 C-105.68424864 0.29655982 -115.17939377 5.32528105 -124.85546875 12.703125 C-125.59410156 13.25613281 -126.33273438 13.80914062 -127.09375 14.37890625 C-144.48252203 28.42234338 -152.9041918 50.15103674 -155.85546875 71.703125 C-154.94667969 72.03183594 -154.03789062 72.36054688 -153.1015625 72.69921875 C-128.50628322 81.88652186 -110.65520838 97.08523676 -99.4765625 121.0390625 C-97.61289183 125.18359637 -95.96908979 129.29050628 -94.85546875 133.703125 C-94.65308594 134.47527344 -94.45070312 135.24742187 -94.2421875 136.04296875 C-92.73046143 142.55264631 -92.38310139 149.03505554 -92.85546875 155.703125 C-94.79469927 157.64235552 -98.2208647 156.92178972 -100.79296875 156.953125 C-102.69369141 156.99179687 -102.69369141 156.99179687 -104.6328125 157.03125 C-106.22802734 156.86882812 -106.22802734 156.86882812 -107.85546875 156.703125 C-110.21784404 153.15956206 -110.30450004 150.97749928 -110.73046875 146.765625 C-112.66113467 130.42982726 -119.258249 117.34154269 -130.85546875 105.703125 C-131.38527344 105.15011719 -131.91507813 104.59710938 -132.4609375 104.02734375 C-145.28282486 91.7987571 -164.60162173 86.54733406 -181.85546875 86.703125 C-201.51746944 87.94586996 -218.16526222 95.51177946 -231.85546875 109.703125 C-245.49522441 125.4338236 -248.87461906 142.90719305 -248.04638672 163.03564453 C-246.9206046 178.76492258 -238.91219277 193.66275708 -227.85546875 204.703125 C-209.77854554 220.35523168 -190.06035148 223.15947855 -166.98149109 223.10185242 C-164.7634997 223.10729721 -162.5455112 223.11405099 -160.32752734 223.12199432 C-154.25702285 223.13997298 -148.18664099 223.13946826 -142.11611617 223.13586485 C-136.23468801 223.13530418 -130.35330306 223.1488094 -124.47189202 223.16194657 C-112.44831558 223.18832112 -100.42476219 223.20089627 -88.40115929 223.20551109 C-76.50232121 223.21012347 -64.60351506 223.22092787 -52.70469093 223.23993874 C-51.96388902 223.24111886 -51.22308711 223.24229899 -50.45983665 223.24351488 C-46.69742894 223.24954059 -42.93502142 223.25567632 -39.17261396 223.26185439 C-12.54778297 223.30537606 14.07704724 223.33511002 40.7019043 223.35668945 C66.561942 223.37768067 92.4219607 223.40494588 118.28198242 223.44067383 C119.07959249 223.44177331 119.87720257 223.44287278 120.69898264 223.44400558 C128.70916671 223.45505425 136.71935059 223.46623013 144.72953435 223.4774992 C161.04610357 223.50045116 177.36267391 223.52255422 193.679245 223.54414368 C194.4293968 223.5451373 195.1795486 223.54613091 195.95243228 223.54715464 C246.01644994 223.61337002 296.08048918 223.65973695 346.14453125 223.703125 C346.33842221 226.1819463 346.52493248 228.66093431 346.70703125 231.140625 C346.76310547 231.84767578 346.81917969 232.55472656 346.87695312 233.28320312 C347.00644118 235.08740337 347.07974733 236.89544452 347.14453125 238.703125 C345.31021379 240.53744246 342.37253202 239.87427488 339.90971851 239.90522385 C339.24820886 239.91479907 338.58669921 239.92437429 337.90514382 239.93423967 C335.66285681 239.96525124 333.42055451 239.9889014 331.17817688 240.01239014 C329.56825055 240.03255601 327.95832814 240.05303781 326.34840953 240.07381105 C321.90839673 240.1292808 317.46833155 240.17734713 313.02821182 240.22337586 C310.18781907 240.25310265 307.34744805 240.28444777 304.50707686 240.31616354 C257.13471519 240.83991656 209.76155907 240.88517226 162.38678908 240.90331364 C155.082279 240.90613394 147.77777013 240.91037779 140.47326088 240.91481781 C120.10396377 240.92691814 99.73466755 240.93725722 79.36536694 240.9406929 C77.44094614 240.94102225 77.44094614 240.94102225 75.47764816 240.94135825 C74.19257237 240.94157653 72.90749658 240.94179481 71.58347911 240.9420197 C68.98151537 240.9424631 66.37955163 240.94290966 63.77758789 240.94335938 C62.48706645 240.9435808 61.19654502 240.94380223 59.86691687 240.94403037 C38.76020548 240.94801469 17.65352781 240.96561877 -3.45317046 240.9887189 C-25.30585979 241.01243834 -47.15853205 241.02489381 -69.01123446 241.02606082 C-81.21046404 241.02697345 -93.40964864 241.03262814 -105.60886574 241.05088043 C-115.93536202 241.06628434 -126.26179914 241.07139736 -136.58830474 241.06314233 C-141.84243871 241.05924666 -147.09645342 241.06011512 -152.35057259 241.07419968 C-157.16597219 241.08699172 -161.98116345 241.08569532 -166.79656299 241.07360896 C-168.52848327 241.0716621 -170.26041861 241.07468311 -171.99231777 241.08345333 C-199.62179754 241.21442522 -222.51382449 233.27636835 -242.85546875 214.140625 C-258.73400005 197.81270131 -266.61321105 177.27340742 -267.23046875 154.640625 C-266.61943893 131.47462497 -257.2321919 109.12920293 -240.39160156 93.08203125 C-227.8922321 81.86199967 -213.14899977 74.57361896 -196.85546875 70.703125 C-196.08976562 70.51621094 -195.3240625 70.32929688 -194.53515625 70.13671875 C-190.5547301 69.49265563 -186.56717656 69.33437139 -182.54296875 69.140625 C-181.2890332 69.07584961 -181.2890332 69.07584961 -180.00976562 69.00976562 C-177.9584994 68.90427193 -175.90700395 68.80325185 -173.85546875 68.703125 C-173.70851563 67.6615625 -173.5615625 66.62 -173.41015625 65.546875 C-170.22398341 44.57144278 -162.1951473 26.52229419 -147.85546875 10.703125 C-147.19853027 9.97246826 -147.19853027 9.97246826 -146.52832031 9.22705078 C-135.05962033 -3.37071318 -121.52187799 -11.80824039 -105.85546875 -18.296875 C-104.90800781 -18.69648437 -103.96054688 -19.09609375 -102.984375 -19.5078125 C-68.29513772 -32.59623394 -27.92777898 -23.27115402 0 0 Z " fill="#132278" transform="translate(318.85546875,73.296875)"/>
<path d="M0 0 C10.0102028 0.02800057 19.98817379 0.57987918 29.98046875 1.1328125 C31.63673582 6.06960141 33.24365882 11.0213851 34.84375 15.9765625 C35.40678694 17.71618277 35.96994188 19.45576485 36.53320312 21.1953125 C37.4095133 23.90200184 38.285243 26.60887074 39.15893555 29.31640625 C42.28816354 39.01105174 45.48442994 48.65902431 48.95532227 58.23730469 C50.21626014 61.79880104 51.28954663 65.36576185 52.29296875 69.0078125 C52.61910156 70.18085938 52.94523437 71.35390625 53.28125 72.5625 C53.62736328 73.83480469 53.62736328 73.83480469 53.98046875 75.1328125 C55.62873194 66.61770187 56.35373068 58.33011195 56.578125 49.66796875 C56.61731552 48.43163193 56.65650604 47.1952951 56.69688416 45.92149353 C56.81985675 42.0129547 56.93218234 38.10421417 57.04296875 34.1953125 C57.15870502 30.26148241 57.27680511 26.32776089 57.39976501 22.39414978 C57.47554705 19.95691847 57.54698331 17.51954717 57.61354065 15.08204651 C57.64705124 13.9799736 57.68056183 12.8779007 57.71508789 11.74243164 C57.74236465 10.77713028 57.76964142 9.81182892 57.79774475 8.817276 C57.98046875 6.1328125 57.98046875 6.1328125 58.98046875 1.1328125 C71.35546875 0.6378125 71.35546875 0.6378125 83.98046875 0.1328125 C84.99132075 4.17622049 84.93210219 7.48107421 84.640625 11.56640625 C84.59481796 12.28135757 84.54901093 12.9963089 84.5018158 13.73292542 C84.35472602 16.01248275 84.19919954 18.29136504 84.04296875 20.5703125 C83.89191434 22.84576533 83.74262972 25.1213212 83.59483337 27.39698792 C83.50249102 28.81066017 83.40800277 30.22419441 83.31105042 31.63755798 C83.07675744 35.14306407 82.92926782 38.61941305 82.98046875 42.1328125 C88.39382769 35.30727297 93.58454177 28.60221578 97.82421875 20.9609375 C98.98046875 19.1328125 98.98046875 19.1328125 100.98046875 18.1328125 C102.86685995 18.0478975 104.7562539 18.0256195 106.64453125 18.03515625 C107.76601563 18.03837891 108.8875 18.04160156 110.04296875 18.04492188 C111.21859375 18.05330078 112.39421875 18.06167969 113.60546875 18.0703125 C114.78882813 18.07482422 115.9721875 18.07933594 117.19140625 18.08398438 C120.12114382 18.09579783 123.05078147 18.11226992 125.98046875 18.1328125 C125.98046875 22.51007216 125.65980896 23.02798932 123.05859375 26.25 C122.13820313 27.40822266 122.13820313 27.40822266 121.19921875 28.58984375 C120.54953125 29.38777344 119.89984375 30.18570313 119.23046875 31.0078125 C116.79860222 34.03776003 114.3821248 37.07887235 111.98046875 40.1328125 C111.51318359 40.70418945 111.04589844 41.27556641 110.56445312 41.86425781 C109.23766393 43.51638902 109.23766393 43.51638902 107.98046875 46.1328125 C109.14083048 49.86377369 111.0255833 53.15911281 112.94921875 56.546875 C113.52027344 57.55492187 114.09132813 58.56296875 114.6796875 59.6015625 C115.27394531 60.643125 115.86820313 61.6846875 116.48046875 62.7578125 C117.07472656 63.80710937 117.66898438 64.85640625 118.28125 65.9375 C121.49771848 71.61649019 121.49771848 71.61649019 124.98046875 77.1328125 C124.98046875 78.1228125 124.98046875 79.1128125 124.98046875 80.1328125 C115.74046875 80.1328125 106.50046875 80.1328125 96.98046875 80.1328125 C95.78421875 77.7196875 94.58796875 75.3065625 93.35546875 72.8203125 C90.04592906 66.17334757 86.60567787 59.61424698 82.98046875 53.1328125 C80.79166778 61.88801637 81.37247483 71.11667277 80.98046875 80.1328125 C63.16046875 80.1328125 45.34046875 80.1328125 26.98046875 80.1328125 C21.98046875 59.1328125 21.98046875 59.1328125 21.98046875 56.1328125 C13.07046875 56.1328125 4.16046875 56.1328125 -5.01953125 56.1328125 C-6.00953125 59.1028125 -6.99953125 62.0728125 -8.01953125 65.1328125 C-9.06152343 67.83286524 -10.11468282 70.51661191 -11.20703125 73.1953125 C-12.13515625 75.4846875 -13.06328125 77.7740625 -14.01953125 80.1328125 C-23.25953125 80.1328125 -32.49953125 80.1328125 -42.01953125 80.1328125 C-41.1052241 75.56127673 -39.71301504 72.19270515 -37.58203125 68.1484375 C-37.22971939 67.46756577 -36.87740753 66.78669403 -36.51441956 66.08518982 C-35.35519236 63.84803353 -34.18736097 61.61548835 -33.01953125 59.3828125 C-32.21152168 57.82690917 -31.40415698 56.27067079 -30.59741211 54.71411133 C-28.92174063 51.48258772 -27.2430025 48.25268539 -25.56201172 45.02392578 C-21.91747134 38.01913625 -18.30512977 30.99778231 -14.69213867 23.97668457 C-13.60108257 21.8573195 -12.50876338 19.73861046 -11.41601562 17.62011719 C-11.07481186 16.95834976 -10.73360809 16.29658234 -10.38206482 15.61476135 C-9.466509 13.83905488 -8.55076686 12.06344448 -7.63500977 10.2878418 C-6.52954234 8.12886409 -5.44229947 5.96048407 -4.37084961 3.78442383 C-2.5269145 0.16618006 -2.5269145 0.16618006 0 0 Z M10.98046875 16.1328125 C9.83340285 18.90314138 8.68776796 21.6740471 7.54296875 24.4453125 C7.21748047 25.23099609 6.89199219 26.01667969 6.55664062 26.82617188 C6.24404297 27.58349609 5.93144531 28.34082031 5.609375 29.12109375 C5.3213501 29.81759033 5.0333252 30.51408691 4.73657227 31.23168945 C4.09523518 32.84424737 3.52925435 34.48645571 2.98046875 36.1328125 C7.60046875 36.1328125 12.22046875 36.1328125 16.98046875 36.1328125 C15.33046875 29.5328125 13.68046875 22.9328125 11.98046875 16.1328125 C11.65046875 16.1328125 11.32046875 16.1328125 10.98046875 16.1328125 Z " fill="#132278" transform="translate(257.01953125,197.8671875)"/>
<path d="M0 0 C1.02996094 -0.00128906 2.05992187 -0.00257813 3.12109375 -0.00390625 C4.74724609 0.00189453 4.74724609 0.00189453 6.40625 0.0078125 C7.49035156 0.00394531 8.57445312 0.00007812 9.69140625 -0.00390625 C10.72136719 -0.00261719 11.75132812 -0.00132812 12.8125 0 C14.24045898 0.00169189 14.24045898 0.00169189 15.69726562 0.00341797 C17.90625 0.1328125 17.90625 0.1328125 18.90625 1.1328125 C18.97016552 3.98210917 18.97244022 6.80781664 18.93359375 9.65625 C18.92094534 11.41666469 18.90858454 13.17708146 18.89648438 14.9375 C18.87166033 17.72467465 18.8437029 20.51174254 18.81030273 23.29882812 C18.78013182 25.98047579 18.76233228 28.6619869 18.74609375 31.34375 C18.73263412 32.17820648 18.7191745 33.01266296 18.70530701 33.87240601 C18.67764892 38.79588568 18.67764892 38.79588568 20.90625 43.1328125 C25.99213076 43.86515048 25.99213076 43.86515048 30.4284668 41.93920898 C36.13730737 34.96089882 35.55587812 22.49734588 36.03125 13.9453125 C36.17579748 11.53491982 36.32402025 9.12474369 36.4765625 6.71484375 C36.53602051 5.66530518 36.59547852 4.6157666 36.65673828 3.53442383 C36.90625 1.1328125 36.90625 1.1328125 37.90625 0.1328125 C39.68696246 0.04555027 41.4710814 0.02582209 43.25390625 0.03515625 C44.33349609 0.03837891 45.41308594 0.04160156 46.52539062 0.04492188 C48.22985352 0.05749023 48.22985352 0.05749023 49.96875 0.0703125 C51.67901367 0.07708008 51.67901367 0.07708008 53.42382812 0.08398438 C56.25135351 0.09581503 59.0787764 0.1122984 61.90625 0.1328125 C62.87597633 3.29103691 62.91500143 5.80735405 62.6015625 9.0859375 C62.51310059 10.08318848 62.42463867 11.08043945 62.33349609 12.10791016 C62.23375488 13.18862793 62.13401367 14.2693457 62.03125 15.3828125 C61.10800311 26.17471524 60.5849833 36.93347515 60.28125 47.7578125 C60.25082611 48.83730164 60.25082611 48.83730164 60.2197876 49.93859863 C60.10706999 54.00317931 60.00539512 58.06786242 59.90625 62.1328125 C51.65625 62.1328125 43.40625 62.1328125 34.90625 62.1328125 C34.41125 60.1528125 34.41125 60.1528125 33.90625 58.1328125 C33.37515625 58.48214844 32.8440625 58.83148438 32.296875 59.19140625 C31.23726563 59.87396484 31.23726563 59.87396484 30.15625 60.5703125 C29.46015625 61.02277344 28.7640625 61.47523438 28.046875 61.94140625 C21.51172259 65.57867174 12.21665209 65.2626045 5.1640625 63.4140625 C-0.58216509 61.01496411 -4.8473 57.98184108 -7.40625 52.1328125 C-9.75464053 41.85894565 -7.92703093 30.14334332 -7.29418945 19.68066406 C-7.15396367 17.34472591 -7.02300458 15.00837868 -6.89257812 12.671875 C-6.80523553 11.18486354 -6.71736555 9.69788294 -6.62890625 8.2109375 C-6.59031998 7.513172 -6.5517337 6.81540649 -6.51197815 6.09649658 C-6.14628255 0.2525546 -5.76524567 0.00683086 0 0 Z " fill="#132278" transform="translate(393.09375,215.8671875)"/>
<path d="M0 0 C5.49213724 4.21298562 8.72884958 10.22951749 10.890625 16.71484375 C11.04023964 19.62369757 11.12180811 22.49278233 11.140625 25.40234375 C11.16125 26.18029297 11.181875 26.95824219 11.203125 27.75976562 C11.26117732 36.46035782 8.45922899 43.82863628 2.4296875 50.27734375 C-6.25098829 58.42821304 -16.98422623 60.04582754 -28.47265625 59.92578125 C-37.34630113 59.41109078 -45.51661668 56.872352 -52.109375 50.71484375 C-59.40461366 40.99297834 -60.12085489 31.53333646 -59.109375 19.71484375 C-57.58168209 12.50891875 -53.77627296 6.41545005 -48.109375 1.71484375 C-33.65398051 -6.98112751 -14.95416685 -9.11096462 0 0 Z M-31.109375 15.71484375 C-33.23700978 19.69166447 -33.40744812 23.25212995 -33.421875 27.71484375 C-33.43863281 28.91109375 -33.45539062 30.10734375 -33.47265625 31.33984375 C-33.05220258 35.24599394 -31.90757869 37.91664006 -29.109375 40.71484375 C-24.74482312 41.25487958 -21.24251637 41.53637124 -17.609375 38.90234375 C-14.88950414 34.93586541 -14.94669439 31.53567224 -14.921875 26.83984375 C-14.90060547 25.01839844 -14.90060547 25.01839844 -14.87890625 23.16015625 C-15.10134465 19.83489067 -15.54789022 17.63995394 -17.109375 14.71484375 C-22.51432336 11.80448694 -25.97849213 12.54897985 -31.109375 15.71484375 Z " fill="#132278" transform="translate(586.109375,220.28515625)"/>
<path d="M0 0 C8.91 0 17.82 0 27 0 C28.98 4.29 30.96 8.58 33 13 C33.804375 11.040625 34.60875 9.08125 35.4375 7.0625 C37.875 1.125 37.875 1.125 39 0 C40.99964982 -0.08758003 43.0023611 -0.10696576 45.00390625 -0.09765625 C46.21884766 -0.09443359 47.43378906 -0.09121094 48.68554688 -0.08789062 C49.96494141 -0.07951172 51.24433594 -0.07113281 52.5625 -0.0625 C53.84576172 -0.05798828 55.12902344 -0.05347656 56.45117188 -0.04882812 C59.63416022 -0.03699545 62.81705762 -0.02051068 66 0 C66.495 0.99 66.495 0.99 67 2 C60.73 11.24 54.46 20.48 48 30 C51.25517695 36.56832981 51.25517695 36.56832981 54.9453125 42.76171875 C55.46480469 43.57060547 55.98429688 44.37949219 56.51953125 45.21289062 C57.59750871 46.87444469 58.6756358 48.53590168 59.75390625 50.19726562 C60.27082031 51.00228516 60.78773438 51.80730469 61.3203125 52.63671875 C61.78711426 53.35561279 62.25391602 54.07450684 62.73486328 54.81518555 C64 57 64 57 66 62 C56.1 62 46.2 62 36 62 C31.5 53 31.5 53 30 49 C27.2274607 52.93563093 27.2274607 52.93563093 24 62 C14.43 62 4.86 62 -5 62 C-1.46617072 55.63910729 2.11350848 49.69830113 6.25 43.77148438 C7.08967434 42.54214867 7.90778395 41.29782829 8.70458984 40.0402832 C9.64033945 38.56646876 10.63296707 37.1282495 11.65869141 35.71557617 C13.3481971 33.0755591 14.39908411 31.08401408 15 28 C13.59058285 23.5199581 11.0822588 19.99102539 8.375 16.1875 C7.02287561 14.18487342 5.67628804 12.17849456 4.3359375 10.16796875 C3.72282715 9.29422607 3.1097168 8.4204834 2.47802734 7.52026367 C1 5 1 5 0 0 Z " fill="#132178" transform="translate(599,216)"/>
<path d="M0 0 C7.92 0 15.84 0 24 0 C26.03469691 4.74762611 27.66680749 8.91306927 29.04296875 13.80859375 C29.39423828 15.04931641 29.74550781 16.29003906 30.10742188 17.56835938 C30.46755099 18.85804414 30.82757577 20.14775804 31.1875 21.4375 C31.55881261 22.7546792 31.93055376 24.07173767 32.30273438 25.38867188 C33.20603642 28.59128823 34.10498401 31.79506004 35 35 C35.28721924 34.18845459 35.57443848 33.37690918 35.87036133 32.54077148 C36.94763265 29.50040489 38.02697008 26.4607817 39.10766602 23.42163086 C39.57300043 22.11169916 40.03753499 20.80148301 40.5012207 19.4909668 C41.1718313 17.59607678 41.84565775 15.70232585 42.51953125 13.80859375 C42.92276611 12.67220459 43.32600098 11.53581543 43.74145508 10.36499023 C45.0499532 6.8664394 46.52861649 3.43322819 48 0 C55.59 0 63.18 0 71 0 C70.22186908 5.44691643 69.2324328 9.47418152 67.12109375 14.3828125 C66.68895821 15.41613708 66.68895821 15.41613708 66.24809265 16.47033691 C65.634273 17.93636299 65.01692446 19.40091584 64.39630127 20.86407471 C62.78533624 24.66285106 61.20023252 28.47239387 59.61328125 32.28125 C59.30013977 33.0311319 58.98699829 33.78101379 58.66436768 34.55361938 C54.88868896 43.621385 51.43370827 52.79766184 48 62 C38.1 62 28.2 62 18 62 C17.3709375 59.89625 16.741875 57.7925 16.09375 55.625 C15.23095966 52.7494596 14.3656296 49.87468685 13.5 47 C13.2761261 46.25568726 13.0522522 45.51137451 12.82159424 44.74450684 C9.54002583 33.8529047 6.11224168 23.03386992 2.33789062 12.30078125 C2.02787109 11.40230469 1.71785156 10.50382813 1.3984375 9.578125 C1.12692871 8.80887695 0.85541992 8.03962891 0.57568359 7.24707031 C0 5 0 5 0 0 Z " fill="#132278" transform="translate(457,216)"/>
<path d="M0 0 C1.93719378 -0.05406122 3.87481921 -0.09282025 5.8125 -0.125 C6.89144531 -0.14820313 7.97039062 -0.17140625 9.08203125 -0.1953125 C12 0 12 0 15 2 C14 3 14 3 11.05859375 3.09765625 C9.26615234 3.08025391 9.26615234 3.08025391 7.4375 3.0625 C5.64119141 3.04896484 5.64119141 3.04896484 3.80859375 3.03515625 C2.88175781 3.02355469 1.95492188 3.01195312 1 3 C0.67 2.01 0.34 1.02 0 0 Z " fill="#0B1779" transform="translate(255,198)"/>
<path d="M0 0 C0.33 0 0.66 0 1 0 C1.144375 0.9075 1.28875 1.815 1.4375 2.75 C1.91364496 5.84504897 1.91364496 5.84504897 2.625 8.1875 C3 10 3 10 2 13 C1.34 13 0.68 13 0 13 C0 8.71 0 4.42 0 0 Z " fill="#080E97" transform="translate(315,210)"/>
</svg>
